<svg id="visual" viewBox="0 0 900 600" width="900" height="600" xmlns="http://www.w3.org/2000/svg" xmlns:xlink="http://www.w3.org/1999/xlink" version="1.1"><rect width="900" height="600" fill="#001829"></rect><g><g transform="translate(512 549)"><path d="M0 -65.7L56.9 -32.8L56.9 32.8L0 65.7L-56.9 32.8L-56.9 -32.8Z" fill="#C62368"></path></g><g transform="translate(803 114)"><path d="M0 -32L27.7 -16L27.7 16L0 32L-27.7 16L-27.7 -16Z" fill="#C62368"></path></g><g transform="translate(367 397)"><path d="M0 -45L39 -22.5L39 22.5L0 45L-39 22.5L-39 -22.5Z" fill="#C62368"></path></g><g transform="translate(651 298)"><path d="M0 -53L45.9 -26.5L45.9 26.5L0 53L-45.9 26.5L-45.9 -26.5Z" fill="#C62368"></path></g><g transform="translate(51 529)"><path d="M0 -53L45.9 -26.5L45.9 26.5L0 53L-45.9 26.5L-45.9 -26.5Z" fill="#C62368"></path></g><g transform="translate(894 390)"><path d="M0 -40L34.6 -20L34.6 20L0 40L-34.6 20L-34.6 -20Z" fill="#C62368"></path></g><g transform="translate(67 295)"><path d="M0 -50L43.3 -25L43.3 25L0 50L-43.3 25L-43.3 -25Z" fill="#C62368"></path></g><g transform="translate(151 27)"><path d="M0 -49L42.4 -24.5L42.4 24.5L0 49L-42.4 24.5L-42.4 -24.5Z" fill="#C62368"></path></g></g></svg>