<svg id="visual" viewBox="0 0 900 600" width="900" height="600" xmlns="http://www.w3.org/2000/svg" xmlns:xlink="http://www.w3.org/1999/xlink" version="1.1"><rect x="0" y="0" width="900" height="600" fill="#001220"></rect><path d="M0 425L21.5 415.8C43 406.7 86 388.3 128.8 387.3C171.7 386.3 214.3 402.7 257.2 412.7C300 422.7 343 426.3 385.8 417.7C428.7 409 471.3 388 514.2 378C557 368 600 369 642.8 379.3C685.7 389.7 728.3 409.3 771.2 420.8C814 432.3 857 435.7 878.5 437.3L900 439L900 601L878.5 601C857 601 814 601 771.2 601C728.3 601 685.7 601 642.8 601C600 601 557 601 514.2 601C471.3 601 428.7 601 385.8 601C343 601 300 601 257.2 601C214.3 601 171.7 601 128.8 601C86 601 43 601 21.5 601L0 601Z" fill="#fa7268"></path><path d="M0 469L21.5 464.7C43 460.3 86 451.7 128.8 450.3C171.7 449 214.3 455 257.2 456.3C300 457.7 343 454.3 385.8 448.8C428.7 443.3 471.3 435.7 514.2 434.7C557 433.7 600 439.3 642.8 440.7C685.7 442 728.3 439 771.2 438.2C814 437.3 857 438.7 878.5 439.3L900 440L900 601L878.5 601C857 601 814 601 771.2 601C728.3 601 685.7 601 642.8 601C600 601 557 601 514.2 601C471.3 601 428.7 601 385.8 601C343 601 300 601 257.2 601C214.3 601 171.7 601 128.8 601C86 601 43 601 21.5 601L0 601Z" fill="#ef5f67"></path><path d="M0 474L21.5 477.8C43 481.7 86 489.3 128.8 484.8C171.7 480.3 214.3 463.7 257.2 454.2C300 444.7 343 442.3 385.8 441.5C428.7 440.7 471.3 441.3 514.2 448C557 454.7 600 467.3 642.8 471.7C685.7 476 728.3 472 771.2 474.8C814 477.7 857 487.3 878.5 492.2L900 497L900 601L878.5 601C857 601 814 601 771.2 601C728.3 601 685.7 601 642.8 601C600 601 557 601 514.2 601C471.3 601 428.7 601 385.8 601C343 601 300 601 257.2 601C214.3 601 171.7 601 128.8 601C86 601 43 601 21.5 601L0 601Z" fill="#e34c67"></path><path d="M0 519L21.5 517.7C43 516.3 86 513.7 128.8 517.3C171.7 521 214.3 531 257.2 529.8C300 528.7 343 516.3 385.8 514.8C428.7 513.3 471.3 522.7 514.2 524C557 525.3 600 518.7 642.8 512.3C685.7 506 728.3 500 771.2 495.8C814 491.7 857 489.3 878.5 488.2L900 487L900 601L878.5 601C857 601 814 601 771.2 601C728.3 601 685.7 601 642.8 601C600 601 557 601 514.2 601C471.3 601 428.7 601 385.8 601C343 601 300 601 257.2 601C214.3 601 171.7 601 128.8 601C86 601 43 601 21.5 601L0 601Z" fill="#d53867"></path><path d="M0 552L21.5 547.7C43 543.3 86 534.7 128.8 533.3C171.7 532 214.3 538 257.2 545C300 552 343 560 385.8 562.2C428.7 564.3 471.3 560.7 514.2 555.8C557 551 600 545 642.8 547.8C685.7 550.7 728.3 562.3 771.2 566.5C814 570.7 857 567.3 878.5 565.7L900 564L900 601L878.5 601C857 601 814 601 771.2 601C728.3 601 685.7 601 642.8 601C600 601 557 601 514.2 601C471.3 601 428.7 601 385.8 601C343 601 300 601 257.2 601C214.3 601 171.7 601 128.8 601C86 601 43 601 21.5 601L0 601Z" fill="#c62368"></path></svg>